<svg xmlns="http://www.w3.org/2000/svg" width="1200" height="259" viewBox="0 0 1200 259">
  <g fill="none" fill-rule="evenodd" transform="translate(18 12)">
    <rect width="82" height="8" x="15" y="43" fill="#FFF"/>
    <rect width="82" height="8" x="15" y="23" fill="#FFF"/>
    <path stroke="#979797" stroke-linecap="square" d="M24.5,182.5 L29,187"/>
    <polygon fill="#FFF" points="21.304 181 13.637 168.26 8.345 157.578 6 139.728 8.345 125.27 12.034 111.832 24.585 96.055 41.123 85.796 67.316 80 84.487 85.796 105 96.055 105 99.575" opacity=".703"/>
    <polygon fill="#FFF" points="389.304 181 381.637 168.26 376.345 157.578 374 139.728 376.345 125.27 380.034 111.832 392.585 96.055 409.123 85.796 435.316 80 452.487 85.796 473 96.055 473 99.575" opacity=".703"/>
    <path fill="#FFF" d="M65.536372,203.732283 L63.1289134,203.732283 C46.1874537,203.732283 31.4307719,197.35177 18.8584254,184.590551 C6.28607894,171.829333 0,156.971213 0,140.015748 C0,123.060283 6.24149682,108.380639 18.7246777,95.976378 C31.2078586,83.5721165 46.6332722,77.3700787 65.0013812,77.3700787 C83.3694902,77.3700787 99.1515608,84.6875909 112.348066,99.3228346 L28.354512,182.314961 C39.9460371,191.595847 51.0915671,196.23622 61.7914365,196.23622 C72.4913058,196.23622 82.0764616,193.782177 90.5471915,188.874016 C99.0179214,183.965855 106.017314,177.406865 111.54558,169.19685 L111.54558,182.850394 C98.8840681,196.771723 83.5478187,203.732283 65.536372,203.732283 Z M25.0108195,101.330709 C14.0434535,112.307141 8.55985267,124.934312 8.55985267,139.212598 C8.55985267,153.490885 13.2855574,165.984198 22.7371087,176.692913 L100.578269,99.3228346 C89.5217372,89.6849912 76.9049972,84.8661417 62.7276703,84.8661417 C48.5503435,84.8661417 35.9781856,90.3542758 25.0108195,101.330709 Z M244.490792,80.0472441 L244.490792,200.519685 L235.930939,200.519685 L235.930939,170.535433 C230.937667,180.708712 223.447871,188.740128 213.461326,194.629921 C203.474781,200.519714 192.775072,203.464567 181.361878,203.464567 C163.885425,203.464567 148.905833,197.262529 136.422652,184.858268 C123.939471,172.454006 117.697974,157.595887 117.697974,140.283465 C117.697974,122.971042 123.939471,108.112923 136.422652,95.7086614 C148.905833,83.3043999 163.885425,77.1023622 181.361878,77.1023622 C192.775072,77.1023622 203.697692,80.1364526 214.130064,86.2047244 C224.562437,92.2729962 231.829323,100.304412 235.930939,110.299213 L235.930939,80.0472441 L244.490792,80.0472441 Z M142.708794,179.503937 C153.67616,190.48037 166.694139,195.968504 181.763122,195.968504 C196.832104,195.968504 209.716337,190.48037 220.416206,179.503937 C231.116076,168.527504 236.46593,155.498763 236.46593,140.417323 C236.46593,125.335883 231.071493,112.262523 220.282459,101.19685 C209.493424,90.1311783 196.609191,84.5984252 181.629374,84.5984252 C166.649557,84.5984252 153.67616,90.1757972 142.708794,101.330709 C131.741428,112.48562 126.257827,125.55898 126.257827,140.551181 C126.257827,155.543382 131.741428,168.527504 142.708794,179.503937 Z M364.596225,80.0472441 L372.353591,80.0472441 L313.237109,204 L253.853131,80.0472441 L263.21547,80.0472441 L314.039595,185.795276 L364.596225,80.0472441 Z M435.215009,203.732283 L432.807551,203.732283 C415.866091,203.732283 401.109409,197.35177 388.537063,184.590551 C375.964716,171.829333 369.678637,156.971213 369.678637,140.015748 C369.678637,123.060283 375.920134,108.380639 388.403315,95.976378 C400.886496,83.5721165 416.311909,77.3700787 434.680018,77.3700787 C453.048127,77.3700787 468.830198,84.6875909 482.026703,99.3228346 L398.033149,182.314961 C409.624674,191.595847 420.770204,196.23622 431.470074,196.23622 C442.169943,196.23622 451.755099,193.782177 460.225829,188.874016 C468.696559,183.965855 475.695951,177.406865 481.224217,169.19685 L481.224217,182.850394 C468.562705,196.771723 453.226456,203.732283 435.215009,203.732283 Z M394.689457,101.330709 C383.722091,112.307141 378.23849,124.934312 378.23849,139.212598 C378.23849,153.490885 382.964195,165.984198 392.415746,176.692913 L470.256906,99.3228346 C459.200374,89.6849912 446.583634,84.8661417 432.406308,84.8661417 C418.228981,84.8661417 405.656823,90.3542758 394.689457,101.330709 Z M502.623849,200.519685 L494.063996,200.519685 L494.063996,80.0472441 L502.623849,80.0472441 L502.623849,104.409449 C511.718738,86.2046334 527.233316,77.1023622 549.168048,77.1023622 C564.147865,77.1023622 576.720023,82.2781635 586.884899,92.6299213 C597.049775,102.981679 602.132136,115.56423 602.132136,130.377953 L602.132136,200.519685 L593.572284,200.519685 L593.572284,130.377953 C593.572284,118.062931 589.247818,107.354376 580.598757,98.2519685 C571.949696,89.1495608 561.472898,84.5984252 549.168048,84.5984252 C536.863198,84.5984252 526.029743,89.1495608 516.667357,98.2519685 C507.304972,107.354376 502.623849,118.062931 502.623849,130.377953 L502.623849,200.519685 Z M604.80709,80.0472441 L613.634438,80.0472441 L663.121087,185.259843 L686.393186,136.267717 L660.446133,80.5826772 L669.005985,80.5826772 L690.673112,127.968504 L712.87523,80.0472441 L720.900092,80.0472441 L694.685543,136.267717 L717.690147,185.795276 L766.641805,80.3149606 L774.399171,80.3149606 L717.422652,203.464567 L690.138122,144.834646 L662.586096,203.464567 L604.80709,80.0472441 Z M788.843923,184.322835 C776.539073,171.561616 770.38674,156.703497 770.38674,139.748031 C770.38674,122.792566 776.628237,108.112923 789.111418,95.7086614 C801.594599,83.3043999 816.618773,77.1023622 834.184392,77.1023622 C851.750011,77.1023622 866.729603,83.3043999 879.123619,95.7086614 C891.517634,108.112923 897.714549,122.837185 897.714549,139.88189 C897.714549,156.926594 891.65138,171.784714 879.524862,184.456693 C867.398343,197.128672 852.686244,203.464567 835.388122,203.464567 L832.980663,203.464567 C815.860872,203.464567 801.148772,197.084053 788.843923,184.322835 Z M872.971225,101.19685 C862.18219,90.1311783 849.297957,84.5984252 834.31814,84.5984252 C819.338323,84.5984252 806.364926,90.1757972 795.39756,101.330709 C784.430194,112.48562 778.946593,125.55898 778.946593,140.551181 C778.946593,155.543382 784.430194,168.527504 795.39756,179.503937 C806.364926,190.48037 819.382905,195.968504 834.451888,195.968504 C849.52087,195.968504 862.405103,190.48037 873.104972,179.503937 C883.804842,168.527504 889.154696,155.498763 889.154696,140.417323 C889.154696,125.335883 883.76026,112.262523 872.971225,101.19685 Z M954.156077,84.5984252 C944.704526,84.5984252 936.36767,88.1679433 929.145258,95.3070866 C921.922846,102.44623 918.311694,110.74536 918.311694,120.204724 L918.311694,200.519685 L909.751842,200.519685 L909.751842,80.0472441 L918.311694,80.0472441 L918.311694,97.984252 C921.521655,91.9159802 926.514853,86.9186548 933.291436,82.992126 C940.06802,79.0655972 947.646981,77.1023622 956.028545,77.1023622 C964.410109,77.1023622 972.434891,79.9579767 980.103131,85.6692913 L980.103131,96.3779528 C972.25656,88.5248951 963.607629,84.5984252 954.156077,84.5984252 Z M1039.21961,194.629921 L1039.21961,202.125984 C1026.5581,202.125984 1015.76923,197.887181 1006.85267,189.409449 C997.936113,180.931716 993.477901,170.089305 993.477901,156.88189 L993.477901,31.5905512 L1002.03775,31.5905512 L1002.03775,80.3149606 L1038.95212,80.3149606 L1038.95212,87.8110236 L1002.03775,87.8110236 L1002.03775,156.88189 C1002.03775,167.769083 1005.6489,176.782117 1012.87132,183.92126 C1020.09373,191.060403 1028.87641,194.629921 1039.21961,194.629921 Z M1062.49171,200.519685 L1053.93186,200.519685 L1053.93186,0 L1062.49171,0 L1062.49171,103.338583 C1071.40827,85.8476816 1086.83368,77.1023622 1108.76842,77.1023622 C1123.74823,77.1023622 1136.36497,82.2781635 1146.61901,92.6299213 C1156.87306,102.981679 1162,115.56423 1162,130.377953 L1162,200.519685 L1153.44015,200.519685 L1153.44015,130.377953 C1153.44015,117.884452 1149.0711,107.131279 1140.33287,98.1181102 C1131.59465,89.1049418 1121.07327,84.5984252 1108.76842,84.5984252 C1096.46357,84.5984252 1085.67469,89.1495608 1076.40147,98.2519685 C1067.12825,107.354376 1062.49171,118.062931 1062.49171,130.377953 L1062.49171,200.519685 Z"/>
    <polygon fill="#FFF" points="32 124.901 40 117 40 167 32 167"/>
    <polygon fill="#FFF" points="59 107.901 67 100 66.198 142.055 59 150"/>
    <polygon fill="#FFF" points="404 124.901 412 117 412 167 404 167"/>
    <polygon fill="#FFF" points="430 107.901 438 100 437.198 142.055 430 150"/>
  </g>
</svg>
